<svg width="126" height="125" viewBox="0 0 126 125" fill="none" xmlns="http://www.w3.org/2000/svg">
<path d="M72.8438 93.7454H53.1562C49.8832 93.7454 47.25 91.1327 47.25 87.8852V46.8636H25.6676C21.2871 46.8636 19.0969 41.6138 22.1977 38.5371L59.6285 1.37349C61.4742 -0.457831 64.5012 -0.457831 66.3469 1.37349L103.802 38.5371C106.903 41.6138 104.713 46.8636 100.332 46.8636H78.75V87.8852C78.75 91.1327 76.1168 93.7454 72.8438 93.7454ZM126 91.792V119.14C126 122.387 123.367 125 120.094 125H5.90625C2.6332 125 0 122.387 0 119.14V91.792C0 88.5445 2.6332 85.9318 5.90625 85.9318H39.375V87.8852C39.375 95.4302 45.552 101.559 53.1562 101.559H72.8438C80.448 101.559 86.625 95.4302 86.625 87.8852V85.9318H120.094C123.367 85.9318 126 88.5445 126 91.792ZM95.4844 113.28C95.4844 110.594 93.2695 108.396 90.5625 108.396C87.8555 108.396 85.6406 110.594 85.6406 113.28C85.6406 115.965 87.8555 118.163 90.5625 118.163C93.2695 118.163 95.4844 115.965 95.4844 113.28ZM111.234 113.28C111.234 110.594 109.02 108.396 106.312 108.396C103.605 108.396 101.391 110.594 101.391 113.28C101.391 115.965 103.605 118.163 106.312 118.163C109.02 118.163 111.234 115.965 111.234 113.28Z" fill="#007AFF"/>
</svg>
